<svg fill="none" height="40" width="140" xmlns="http://www.w3.org/2000/svg" xmlns:xlink="http://www.w3.org/1999/xlink"><linearGradient id="a" gradientUnits="userSpaceOnUse" x1="0" x2="14.615" y1="21.727" y2="21.727"><stop offset="0" stop-color="#4b9c50"/><stop offset="1" stop-color="#53ad59"/></linearGradient><linearGradient id="b" gradientUnits="userSpaceOnUse" x1="15.385" x2="30" y1="26.587" y2="26.587"><stop offset="0" stop-color="#53ad59"/><stop offset="1" stop-color="#64b56a"/></linearGradient><linearGradient id="c" gradientUnits="userSpaceOnUse" x1="0" x2="15" y1="6.813" y2="6.813"><stop offset="0" stop-color="#4b9c50"/><stop offset=".723" stop-color="#53ad59"/><stop offset="1" stop-color="#4b9c50"/></linearGradient><linearGradient id="d" gradientUnits="userSpaceOnUse" x1="15" x2="30" y1="6.813" y2="6.813"><stop offset="0" stop-color="#4b9c50"/><stop offset=".256" stop-color="#53ad59"/><stop offset=".98" stop-color="#4b9c50"/></linearGradient><linearGradient id="e" gradientUnits="userSpaceOnUse" x1="15" x2="15" y1="8.714" y2="14.437"><stop offset="0" stop-color="#4b9c50"/><stop offset="1" stop-color="#64b56a"/></linearGradient><path d="m10.202 14.511-10.202-5.946v23.052l7.963 4.57a4.5 4.5 0 0 0 4.442.002 4.41 4.41 0 0 0 1.627-1.598 4.32 4.32 0 0 0 .598-2.185v-10.33a8.64 8.64 0 0 0 -1.187-4.365 8.819 8.819 0 0 0 -3.241-3.2zm-.387 14.464c0 .257-.07.51-.2.732a1.47 1.47 0 0 1 -.548.534 1.5 1.5 0 0 1 -1.49-.012l-2.761-1.619v-11.48l2.822 1.64c.665.388 1.215.94 1.597 1.6a4.32 4.32 0 0 1 .58 2.168z" fill="#53ad59"/><path d="m10.202 14.511-10.202-5.946v23.052l7.963 4.57a4.5 4.5 0 0 0 4.442.002 4.41 4.41 0 0 0 1.627-1.598 4.32 4.32 0 0 0 .598-2.185v-10.33a8.64 8.64 0 0 0 -1.187-4.365 8.819 8.819 0 0 0 -3.241-3.2zm-.387 14.464c0 .257-.07.51-.2.732a1.47 1.47 0 0 1 -.548.534 1.5 1.5 0 0 1 -1.49-.012l-2.761-1.619v-11.48l2.822 1.64c.665.388 1.215.94 1.597 1.6a4.32 4.32 0 0 1 .58 2.168z" fill="url(#a)"/><path d="m19.798 14.511a8.819 8.819 0 0 0 -3.241 3.2 8.64 8.64 0 0 0 -1.187 4.365v17.924l5-2.916v-5.649l4.63-2.733v5.649l5-2.734v-23.052l-10.202 5.945zm5.387 8.541-5 2.734v-3.156c0-.76.2-1.506.582-2.166s.932-1.21 1.596-1.598l2.822-1.64z" fill="#53ad59"/><path d="m19.798 14.511a8.819 8.819 0 0 0 -3.241 3.2 8.64 8.64 0 0 0 -1.187 4.365v17.924l5-2.916v-5.649l4.63-2.733v5.649l5-2.734v-23.052l-10.202 5.945zm5.387 8.541-5 2.734v-3.156c0-.76.2-1.506.582-2.166s.932-1.21 1.596-1.598l2.822-1.64z" fill="url(#b)"/><path d="m15 0-15 8.565 5 2.916 10-5.65z" fill="url(#c)"/><path d="m15 0-15 8.565 5 2.916 10-5.65z" fill="#000" fill-opacity=".2"/><path d="m15 0 15 8.565-5 2.916-10-5.65z" fill="url(#d)"/><path d="m15 0 15 8.565-5 2.916-10-5.65z" fill="#000" fill-opacity=".12"/><path d="m9.965 11.575 5.035-2.86 5.035 2.86-5.035 2.862z" fill="url(#e)"/><path d="m45.72 13h-6.06v14h3.24v-3.86h2.82c3.74 0 6.08-1.94 6.08-5.06 0-3.14-2.34-5.08-6.08-5.08zm-.18 7.5h-2.64v-4.86h2.64c1.98 0 2.98.9 2.98 2.44 0 1.52-1 2.42-2.98 2.42zm13.453 6.66c3.42 0 5.9-2.3 5.9-5.54s-2.48-5.54-5.9-5.54-5.92 2.3-5.92 5.54 2.5 5.54 5.92 5.54zm0-2.56c-1.56 0-2.76-1.12-2.76-2.98s1.2-2.98 2.76-2.98 2.74 1.12 2.74 2.98-1.18 2.98-2.74 2.98zm10.966-6.94v-1.42h-2.98v10.76h3.12v-5.08c0-2.06 1.14-3 2.86-3 .24 0 .44.02.7.04v-2.88c-1.66 0-2.94.54-3.7 1.58zm12.026 6.62c-.34.26-.8.4-1.26.4-.84 0-1.34-.5-1.34-1.42v-4.38h2.68v-2.4h-2.68v-2.62h-3.12v2.62h-1.66v2.4h1.66v4.42c0 2.56 1.48 3.86 4.02 3.86.96 0 1.9-.22 2.54-.68zm6.932-8.2c-1.72 0-3.46.46-4.64 1.3l1.12 2.18c.78-.62 1.96-1 3.1-1 1.68 0 2.48.78 2.48 2.12h-2.48c-3.28 0-4.62 1.32-4.62 3.22 0 1.86 1.5 3.26 4.02 3.26 1.58 0 2.7-.52 3.28-1.5v1.34h2.92v-6.14c0-3.26-1.9-4.78-5.18-4.78zm-.24 8.98c-1.1 0-1.76-.52-1.76-1.3 0-.72.46-1.26 1.92-1.26h2.14v1.1c-.36.98-1.26 1.46-2.3 1.46zm8.243 1.94h3.12v-14.84h-3.12zm11.9 0h6.36c4.58 0 7.72-2.76 7.72-7s-3.14-7-7.72-7h-6.36zm3.24-2.66v-8.68h2.96c2.78 0 4.6 1.66 4.6 4.34s-1.82 4.34-4.6 4.34zm23.548 2.66h3.4l-6.26-14h-3.2l-6.24 14h3.32l1.24-3h6.5zm-6.7-5.46 2.22-5.36 2.22 5.36z" fill="#25282b"/></svg>